<svg width="500" height="550" viewBox="0 0 170 55" fill="none" xmlns="http://www.w3.org/2000/svg">
    <!-- <g clip-path="url(#clip0_89_376)"> -->
    <path
        d="M27.7997 53.5079C42.2739 53.5079 54.0076 41.7742 54.0076 27.3C54.0076 12.8257 42.2739 1.09204 27.7997 1.09204C13.3255 1.09204 1.5918 12.8257 1.5918 27.3C1.5918 41.7742 13.3255 53.5079 27.7997 53.5079Z"
        fill="#171C2A" />
    <path
        d="M27.7999 54.5998C22.4005 54.5998 17.1223 52.9987 12.6329 49.999C8.14346 46.9992 4.64436 42.7355 2.57809 37.7471C0.511829 32.7587 -0.0288005 27.2696 1.02457 21.974C2.07794 16.6783 4.67801 11.8139 8.49597 7.99597C12.3139 4.17801 17.1783 1.57794 22.474 0.524572C27.7696 -0.5288 33.2587 0.0118286 38.2471 2.07809C43.2355 4.14436 47.4992 7.64346 50.499 12.1329C53.4987 16.6223 55.0998 21.9005 55.0998 27.2999C55.0911 34.5376 52.2121 41.4764 47.0943 46.5943C41.9764 51.7121 35.0376 54.5911 27.7999 54.5998ZM27.7999 2.184C22.8325 2.184 17.9766 3.65703 13.8463 6.4168C9.71597 9.17657 6.4968 13.0991 4.59584 17.6885C2.69488 22.2778 2.1975 27.3278 3.1666 32.1998C4.1357 37.0718 6.52776 41.547 10.0403 45.0595C13.5528 48.5721 18.028 50.9641 22.9 51.9332C27.7721 52.9023 32.822 52.405 37.4114 50.504C42.0007 48.603 45.9233 45.3839 48.683 41.2536C51.4428 37.1233 52.9158 32.2674 52.9158 27.2999C52.9072 20.6414 50.2582 14.2581 45.55 9.54986C40.8417 4.84159 34.4584 2.19267 27.7999 2.184Z"
        fill="#00D991" />
    <path
        d="M21.3419 29.3479L21.1837 29.5063C21.1027 29.5873 21.1028 29.7187 21.1839 29.7997L23.56 32.1724C23.641 32.2534 23.7724 32.2533 23.8534 32.1722L24.0116 32.0138C24.0925 31.9327 24.0924 31.8014 24.0114 31.7204L21.6353 29.3477C21.5542 29.2667 21.4229 29.2668 21.3419 29.3479Z"
        fill="white" />
    <path
        d="M21.3939 28.1291L21.2356 28.2874C21.1546 28.3684 21.1546 28.4998 21.2356 28.5808L23.1969 30.5421C23.2779 30.6231 23.4093 30.6231 23.4903 30.5421L23.6486 30.3838C23.7296 30.3028 23.7296 30.1714 23.6486 30.0904L21.6873 28.1291C21.6063 28.0481 21.4749 28.0481 21.3939 28.1291Z"
        fill="white" />
    <path
        d="M34.7608 29.354L34.6027 29.5124C34.5217 29.5935 34.5218 29.7248 34.6029 29.8058L36.9789 32.1785C37.06 32.2595 37.1914 32.2594 37.2723 32.1783L37.4305 32.0199C37.5115 31.9388 37.5114 31.8075 37.4303 31.7265L35.0543 29.3538C34.9732 29.2728 34.8418 29.2729 34.7608 29.354Z"
        fill="white" />
    <path
        d="M34.7965 28.1301L34.638 28.2882C34.557 28.3692 34.5568 28.5006 34.6378 28.5817L36.5974 30.5446C36.6783 30.6257 36.8097 30.6259 36.8908 30.5449L37.0492 30.3867C37.1303 30.3058 37.1304 30.1744 37.0495 30.0933L35.0899 28.1303C35.0089 28.0492 34.8776 28.0491 34.7965 28.1301Z"
        fill="white" />
    <path fill-rule="evenodd" clip-rule="evenodd"
        d="M40.3573 30.8218H39.8113C39.6564 29.5291 39.0368 28.3367 38.0681 27.4669C37.0993 26.5971 35.8474 26.109 34.5456 26.0936C33.2437 26.0783 31.9806 26.5367 30.9916 27.3834C30.0026 28.2301 29.3552 29.4075 29.1698 30.6962C28.8804 30.7617 27.7502 30.8218 27.7502 30.8218C27.7502 30.8218 26.6582 30.7672 26.3906 30.7071C26.2065 29.4183 25.5602 28.2404 24.572 27.3928C23.5839 26.5451 22.3214 26.0855 21.0196 26.0995C19.7178 26.1135 18.4655 26.6003 17.4959 27.469C16.5263 28.3378 15.9055 29.5293 15.7491 30.8218H15.1376C15.0276 30.8218 14.922 30.8655 14.8442 30.9433C14.7664 31.0211 14.7227 31.1267 14.7227 31.2367V31.6681C14.7241 31.7762 14.7677 31.8796 14.8442 31.9561C14.9207 32.0326 15.024 32.0762 15.1322 32.0776H15.7218C15.8753 33.3705 16.4936 34.5636 17.4615 35.4346C18.4293 36.3055 19.6808 36.7949 20.9827 36.8116C22.2847 36.8283 23.5483 36.3712 24.5382 35.5253C25.5281 34.6795 26.1767 33.5027 26.3633 32.2141C26.6636 32.154 27.7229 32.094 27.7229 32.094C27.7229 32.094 28.8476 32.1649 29.1425 32.225C29.3029 33.5367 29.9416 34.7432 30.9363 35.6133C31.931 36.4833 33.2117 36.9558 34.5331 36.9403C35.8545 36.9247 37.1238 36.4222 38.0977 35.529C39.0716 34.6357 39.6818 33.4146 39.8113 32.0994H40.3573C40.4655 32.0995 40.5694 32.0572 40.6469 31.9818C40.7244 31.9063 40.7694 31.8035 40.7722 31.6954V31.2422C40.7722 31.1321 40.7285 31.0266 40.6507 30.9488C40.5729 30.871 40.4673 30.8272 40.3573 30.8272V30.8218ZM21.0508 35.5501C20.2419 35.5501 19.4513 35.3103 18.7788 34.8609C18.1062 34.4115 17.5821 33.7729 17.2725 33.0256C16.963 32.2783 16.882 31.4561 17.0398 30.6628C17.1976 29.8695 17.5871 29.1408 18.159 28.5689C18.731 27.9969 19.4597 27.6074 20.2529 27.4496C21.0462 27.2919 21.8685 27.3728 22.6158 27.6824C23.363 27.9919 24.0017 28.5161 24.4511 29.1886C24.9005 29.8611 25.1403 30.6518 25.1403 31.4606C25.1403 32.5452 24.7094 33.5854 23.9425 34.3523C23.1756 35.1193 22.1354 35.5501 21.0508 35.5501ZM34.455 35.5501C33.6462 35.5501 32.8555 35.3103 32.183 34.8609C31.5105 34.4115 30.9863 33.7729 30.6768 33.0256C30.3673 32.2783 30.2863 31.4561 30.4441 30.6628C30.6019 29.8695 30.9914 29.1408 31.5633 28.5689C32.1352 27.9969 32.8639 27.6074 33.6572 27.4496C34.4505 27.2919 35.2728 27.3728 36.02 27.6824C36.7673 27.9919 37.406 28.5161 37.8553 29.1886C38.3047 29.8611 38.5446 30.6518 38.5446 31.4606C38.5446 32.5452 38.1137 33.5854 37.3468 34.3523C36.5798 35.1193 35.5396 35.5501 34.455 35.5501Z"
        fill="white" />
    <path
        d="M45.0409 29.2766V19.7271H41.683C41.8794 18.6775 42.0053 17.6158 42.0598 16.5494L40.0832 18.0181C41.1752 16.7569 40.0832 10.8765 40.0832 10.8765C40.0832 10.8765 38.6418 13.7047 29.6547 12.984C20.6675 12.2633 19.4063 15.8341 19.4063 15.8341C18.3143 14.7421 19.4063 12.9567 19.4063 12.9567C19.0807 13.1072 18.7879 13.3203 18.5447 13.584C18.3015 13.8476 18.1126 14.1567 17.9889 14.4933C17.8651 14.83 17.809 15.1878 17.8236 15.5462C17.8382 15.9046 17.9233 16.2566 18.0741 16.5821L18.1505 16.7296H15.2403L17.2496 18.0181C16.6164 18.4382 16.1298 19.0451 15.8573 19.7544H10.4519V29.2766L8.48633 31.2422L10.4519 33.2078L10.9979 42.7573H16.103L15.557 32.6509C15.5624 32.6174 15.561 32.5833 15.5528 32.5504C15.5446 32.5175 15.5299 32.4866 15.5095 32.4596C15.4891 32.4326 15.4635 32.4099 15.4341 32.3931C15.4047 32.3762 15.3722 32.3655 15.3386 32.3615C15.2721 32.352 15.2045 32.3691 15.1504 32.4089C15.0963 32.4487 15.06 32.5081 15.0492 32.5744C15.0438 32.5996 15.0438 32.6257 15.0492 32.6509V40.404H12.7615V32.5744L11.4183 31.2422L12.756 29.91V22.0803H15.3004C15.2403 22.6717 15.2293 23.2671 15.2676 23.8603H17.064C17.1639 22.7698 17.6849 21.7611 18.5163 21.0484C21.5739 17.2701 34.5195 19.4759 34.5195 19.4759L35.9555 17.3575L35.4095 19.4759C38.4562 20.2021 38.7182 23.7948 38.7182 23.7948H40.0832C40.4936 23.2796 40.8164 22.7004 41.0387 22.0803H42.7313V29.91L44.069 31.2422L42.7313 32.5744V40.404H39.9358L40.4818 42.7573H45.5869L45.0409 33.2078L47.0065 31.2422L45.0409 29.2766Z"
        fill="white" />

    </g>
    <!-- <defs>
        <clipPath id="clip0_89_376">
            <rect width="169.057" height="54.5998" fill="white" transform="translate(0.5)" />
        </clipPath>
    </defs> -->
</svg>